<svg id="logo" xmlns="http://www.w3.org/2000/svg" xml:space="preserve" viewBox="0 0 512 512"><path fill="currentColor" d="M256 342.3c-24.7 0-44.8 20.11-44.8 44.82 0 24.7 20.1 44.8 44.8 44.8s44.8-20.1 44.8-44.8a44.86 44.86 0 0 0-44.8-44.81zm0 68.2a23.41 23.41 0 0 1-23.38-23.38c0-12.9 10.49-23.4 23.38-23.4s23.38 10.5 23.38 23.4A23.4 23.4 0 0 1 256 410.5zM177.86 254.02c-5.92 0-10.71 4.8-10.71 10.71a6.13 6.13 0 0 1-12.24 0 10.71 10.71 0 0 0-21.43 0 27.57 27.57 0 0 0 27.54 27.54 27.58 27.58 0 0 0 27.55-27.54c0-5.91-4.8-10.7-10.7-10.7zM455.81 187.53l-1.1-1.35a10.71 10.71 0 0 0-16.6 13.53l1.02 1.26a10.7 10.7 0 0 0 15.06 1.62 10.71 10.71 0 0 0 1.62-15.06z"/><path fill="currentColor" d="M507.57 276.49a377.64 377.64 0 0 0-34.71-65.71 10.72 10.72 0 0 0-17.83 11.89 356.2 356.2 0 0 1 32.72 61.97 37.24 37.24 0 0 1-1.5 31.61 36.78 36.78 0 0 1-22.34 18.24c-47.83-100.31-78.99-147.6-122.62-145.06-15.54.9-29.95 15.63-37.16 24.32-11.8 14.25-20.73 31.97-24.48 48.63-8.82 39.16.3 48.33 18.59 62.39 13.75 10.58 34.23 26.36 56.99 75.98-24.43 24.13-47.73 44.04-99.23 44.04-51.5 0-74.8-19.9-99.23-44.04 22.76-49.62 43.24-65.4 57-75.98 18.28-14.06 27.4-23.23 18.59-62.4-3.76-16.64-12.68-34.37-24.49-48.61-7.2-8.7-21.62-23.43-37.14-24.33-43.65-2.54-74.81 44.75-122.64 145.06a36.79 36.79 0 0 1-22.34-18.24 37.24 37.24 0 0 1-1.5-31.61c15.94-38.73 45.57-92.6 96.2-129.37a218.32 218.32 0 0 1 91.7-38.63 256.07 256.07 0 0 1 43.85-3.69c15.07 0 29.82 1.24 43.85 3.69a218.35 218.35 0 0 1 91.7 38.63 239.35 239.35 0 0 1 28.63 24.54 10.68 10.68 0 0 0 15.15.01 10.71 10.71 0 0 0 .01-15.15c-7.76-7.77-15.93-15-24.38-21.59 2.7-6.64 6.62-16.8 10.07-27.75 11.74-37.34 7.1-49.94 2.6-56.18-5.39-7.45-14.79-12.12-26.47-13.14-28.3-2.47-65.57 15.62-100.21 48.47-13.24-1.96-26.98-2.95-40.95-2.95s-27.7 1-40.94 2.95c-34.64-32.85-71.92-50.93-100.21-48.47-11.68 1.02-21.09 5.69-26.47 13.14-4.51 6.24-9.15 18.85 2.6 56.18a371.73 371.73 0 0 0 10.07 27.76c-50.53 39.42-80.34 93.86-96.61 133.4a58.6 58.6 0 0 0 2.36 49.75 58.16 58.16 0 0 0 39.4 29.86 153.84 153.84 0 0 1 5.33 1.23c41.54 10.2 63.58 32.15 84.88 53.38l.15.15c27.3 27.21 55.53 55.35 119.44 55.35s92.14-28.14 119.44-55.35l.16-.15c21.3-21.23 43.32-43.18 84.88-53.38h.02l.05-.02c1.65-.4 3.37-.8 5.27-1.21a58.15 58.15 0 0 0 39.39-29.86 58.6 58.6 0 0 0 2.36-49.75zM395.3 67.36c5.23.45 9.33 2.08 10.95 4.32.04.06 3.95 6.89-5.8 37.68a339.94 339.94 0 0 1-7.46 20.94 238.3 238.3 0 0 0-69.83-30.52c30.59-25.59 56.75-33.75 72.14-32.42zM105.74 71.7c1.63-2.26 5.73-3.89 10.97-4.35 15.38-1.33 41.54 6.84 72.13 32.43a238.3 238.3 0 0 0-69.83 30.52c-2.27-5.8-5-13.2-7.46-20.94-9.74-30.8-5.84-37.62-5.81-37.66zM69.17 340.07c40.88-85.35 69.57-131.07 100.3-129.25 9.9.57 35 25.3 41.99 56.27 3.15 14 3.71 22.91 1.76 28.04-1.57 4.1-5.17 7-12.52 12.66-14.75 11.35-36.43 28.05-60.1 77-17.77-17.04-38.9-34.27-71.43-44.72zm302.22 44.72c-23.66-48.95-45.33-65.65-60.09-77-7.35-5.65-10.95-8.55-12.52-12.66-1.95-5.12-1.39-14.04 1.76-28.04 6.99-30.97 32.09-55.7 42-56.27 30.73-1.78 59.41 43.9 100.3 129.25-32.54 10.47-53.68 27.69-71.44 44.72z"/><path fill="currentColor" d="M367.8 254.02c-5.9 0-10.7 4.8-10.7 10.71a6.12 6.12 0 0 1-12.25 0 10.71 10.71 0 0 0-21.42 0 27.58 27.58 0 0 0 27.55 27.54 27.57 27.57 0 0 0 27.54-27.54c0-5.91-4.8-10.7-10.71-10.7z"/></svg>